<!DOCTYPE svg PUBLIC "-//W3C//DTD SVG 1.1//EN" "http://www.w3.org/Graphics/SVG/1.1/DTD/svg11.dtd">
<!-- Uploaded to: SVG Repo, www.svgrepo.com, Transformed by: SVG Repo Mixer Tools -->
<svg fill="#ffffff" height="800px" width="800px" version="1.1" id="Capa_1" xmlns="http://www.w3.org/2000/svg" xmlns:xlink="http://www.w3.org/1999/xlink" viewBox="-26.86 -26.86 322.33 322.33" xml:space="preserve" transform="rotate(0)" stroke="#ffffff">
<g id="SVGRepo_bgCarrier" stroke-width="0">
<rect x="-26.86" y="-26.86" width="322.33" height="322.33" rx="0" fill="#f0a524" strokewidth="0"/>
</g>
<g id="SVGRepo_tracerCarrier" stroke-linecap="round" stroke-linejoin="round"/>
<g id="SVGRepo_iconCarrier"> <g> <path d="M266.856,56.353L243.88,33.378c-2.342-2.342-6.142-2.343-8.485,0.001c-2.343,2.343-2.343,6.142,0.001,8.485l12.205,12.204 h-51.294c-3.314,0-6,2.687-6,6s2.686,6,6,6h52.349l-12.671,12.672c-2.343,2.343-2.343,6.142,0.001,8.485 c1.171,1.171,2.707,1.757,4.242,1.757s3.071-0.586,4.243-1.758l22.386-22.387C269.2,62.495,269.2,58.697,266.856,56.353z"/> <path d="M186.889,128.961c-2.738-0.634-4.821-2.878-5.511-5.604c-1.673-6.614-7.568-12.065-14.669-12.59 c-4.708-0.349-7.639-5.315-5.959-9.726l18.097-47.545c4.823-12.704-5.455-21.951-15.594-21.951c-5.893,0-11.738,3.124-14.543,10.51 l-23.493,61.238c-0.906,2.361-3.156,3.811-5.542,3.811c-0.711,0-1.434-0.129-2.137-0.4c-2.83-1.093-4.258-4.256-3.204-7.102 l17.07-46.105c4.824-12.704-5.455-21.95-15.593-21.951c-5.894,0-11.738,3.124-14.543,10.51l-38.112,99.809 c-1.175,3.075-3.999,4.7-6.844,4.7c-2.313,0-4.641-1.075-6.103-3.321l-22.161-35.474c-2.853-4.708-7.037-6.659-11.308-6.659 c-10.435,0-21.384,11.641-14.691,23.133c0.108,0.186,59.606,108.786,59.606,108.786c1.189,2.598,3.785,4.04,6.642,4.04h81.646 c2.922,0,5.563-1.518,6.714-4.204l4.558-12.856c0.397-0.929,0.988-1.706,1.727-2.396c17.981-16.823,27.057-34.817,32.703-49.68 C202.759,149.213,197.863,131.499,186.889,128.961z"/> </g> </g>
</svg>